<svg xmlns="http://www.w3.org/2000/svg" viewBox="0 9.470000267028809 91.81999969482422 35.78999710083008" data-asc="0.9052734375"><defs/><g><g><g transform="translate(0, 0)"><path d="M0 45.26L0 9.47L4.74 9.47L4.74 27.22L22.51 9.47L28.93 9.47L13.92 23.97L29.59 45.26L23.34 45.26L10.60 27.15L4.74 32.86L4.74 45.26L0 45.26ZM33.54 45.26L33.54 9.47L45.87 9.47Q50.05 9.47 52.25 9.99Q55.32 10.69 57.50 12.55Q60.33 14.94 61.73 18.66Q63.13 22.39 63.13 27.17Q63.13 31.25 62.18 34.40Q61.23 37.55 59.74 39.61Q58.25 41.67 56.48 42.86Q54.71 44.04 52.21 44.65Q49.71 45.26 46.46 45.26L33.54 45.26M38.28 41.04L45.92 41.04Q49.46 41.04 51.48 40.38Q53.49 39.72 54.69 38.53Q56.37 36.84 57.31 34.00Q58.25 31.15 58.25 27.10Q58.25 21.48 56.41 18.47Q54.57 15.45 51.93 14.43Q50.02 13.70 45.80 13.70L38.28 13.70L38.28 41.04ZM69.46 45.26L69.46 9.47L74.19 9.47L74.19 41.04L91.82 41.04L91.82 45.26L69.46 45.26Z"/></g></g></g></svg>